<?xml version="1.0" encoding="utf-8"?>
<!-- Generator: Adobe Illustrator 23.0.1, SVG Export Plug-In . SVG Version: 6.00 Build 0)  -->
<svg version="1.1" id="Layer_1" xmlns="http://www.w3.org/2000/svg" xmlns:xlink="http://www.w3.org/1999/xlink" x="0px" y="0px"
	 viewBox="0 0 152 105" style="enable-background:new 0 0 152 105;" xml:space="preserve">
<style type="text/css">
	.st0{fill:#0057FA;}
</style>
<path class="st0" d="M16.4,92.4c3.1,3.1,6.6,5.8,10.5,8l62.7-82.5c-4.6-4.4-9.8-8-15.9-10.6c-6.4-2.8-13.1-4.2-20.3-4.2
	s-14,1.4-20.3,4.2c-6.4,2.8-11.9,6.5-16.6,11.3S8,28.8,5.2,35.1c-2.7,6.3-4.1,13.1-4.1,20.2c0,7.2,1.4,14,4.1,20.3
	C8,82.1,11.7,87.6,16.4,92.4z"/>
<polygon class="st0" points="96.2,29 104.8,29 104.8,101.8 145.6,101.8 145.6,3.6 115.5,3.6 "/>
</svg>
